<svg xmlns="http://www.w3.org/2000/svg" viewBox="0 0 1000 800" width="1000" height="800">
  <!-- Style definitions -->
  <style>
    .title { font-family: sans-serif; font-size: 18px; font-weight: bold; }
    .subtitle { font-family: sans-serif; font-size: 14px; fill: #555; }
    .label { font-family: sans-serif; font-size: 12px; }
    .small-text { font-family: sans-serif; font-size: 10px; fill: #777; }
    .button { fill: #4CAF50; rx: 4; ry: 4; }
    .button-text { font-family: sans-serif; font-size: 12px; fill: white; text-anchor: middle; dominant-baseline: middle; }
    .container { fill: #f9f9f9; stroke: #ddd; rx: 5; ry: 5; }
    .header { fill: #f1f1f1; stroke: #ddd; }
    .item { fill: white; stroke: #ddd; }
    .blue-button { fill: #2196F3; rx: 4; ry: 4; }
    .search { fill: white; stroke: #ddd; rx: 4; ry: 4; }
    .tab { fill: #e0e0e0; stroke: #bbb; rx: 2; ry: 2; }
    .tab-active { fill: white; stroke: #bbb; rx: 2; ry: 2; }
    .iframe { fill: #000; opacity: 0.8; }
    .graph { fill: #f5f5f5; stroke: #ddd; }
    .tick { stroke: #999; stroke-width: 1; stroke-dasharray: 3,3; }
    .plot-line-volume { stroke: #f44336; stroke-width: 2; fill: none; }
    .current-marker { fill: #f44336; }
    .legend-volume { fill: #f44336; }
    .comments-bar1 { fill: #673AB7; opacity: 0.6; }
    .comments-bar2 { fill: #2196F3; opacity: 0.6; }
    .comments-bar3 { fill: #4CAF50; opacity: 0.6; }
    .term-tag1 { fill: #673AB7; rx: 12; ry: 12; }
    .term-tag2 { fill: #2196F3; rx: 12; ry: 12; }
    .term-tag3 { fill: #4CAF50; rx: 12; ry: 12; }
    .tag-text { font-family: sans-serif; font-size: 11px; fill: white; }
    .tag-remove { font-family: sans-serif; font-size: 11px; fill: white; font-weight: bold; }
    .comment { fill: white; stroke: #ddd; }
    .highlight1 { fill: #673AB7; opacity: 0.2; }
    .highlight2 { fill: #2196F3; opacity: 0.2; }
    .highlight3 { fill: #4CAF50; opacity: 0.2; }
    .divider { stroke: #ddd; stroke-width: 1; }
    .legend-comment1 { fill: #673AB7; }
    .legend-comment2 { fill: #2196F3; }
    .legend-comment3 { fill: #4CAF50; }
  </style>

  <!-- Background -->
  <rect width="1000" height="800" fill="white" />
  
  <!-- Title -->
  <text x="500" y="30" text-anchor="middle" class="title">動画分析画面 - コメントタブ (更新版)</text>
  
  <!-- YouTube Player Section -->
  <rect x="50" y="50" width="600" height="320" class="iframe" />
  <text x="350" y="210" text-anchor="middle" fill="white" class="label">YouTube 動画プレイヤー</text>
  
  <!-- Controls Panel -->
  <rect x="670" y="50" width="280" height="320" class="container" />
  <text x="810" y="80" text-anchor="middle" class="label">コントロールパネル</text>
  
  <!-- Granularity Control -->
  <rect x="690" y="100" width="240" height="30" class="container" />
  <text x="710" y="120" class="small-text">粒度: 10秒</text>
  
  <!-- Horizontal Divider -->
  <line x1="690" y1="140" x2="930" y2="140" class="divider" />
  
  <!-- Multi-Term Comment Search - Always Visible -->
  <text x="710" y="160" class="small-text">コメント検索（複数指定可）</text>
  <rect x="690" y="170" width="240" height="35" class="search" />
  
  <!-- Search Tags -->
  <rect x="690" y="215" width="240" height="30" class="container" />
  <!-- Tag 1 -->
  <rect x="700" y="220" width="70" height="20" class="term-tag1" />
  <text x="725" y="234" text-anchor="middle" class="tag-text">検索語1</text>
  <text x="760" y="234" class="tag-remove">×</text>
  
  <!-- Tag 2 -->
  <rect x="775" y="220" width="70" height="20" class="term-tag2" />
  <text x="800" y="234" text-anchor="middle" class="tag-text">検索語2</text>
  <text x="835" y="234" class="tag-remove">×</text>
  
  <!-- Tag 3 -->
  <rect x="850" y="220" width="70" height="20" class="term-tag3" />
  <text x="875" y="234" text-anchor="middle" class="tag-text">検索語3</text>
  <text x="910" y="234" class="tag-remove">×</text>
  
  <!-- Search Button -->
  <rect x="690" y="255" width="240" height="30" class="blue-button" />
  <text x="810" y="270" text-anchor="middle" class="button-text">検索</text>
  
  <!-- Horizontal Divider -->
  <line x1="690" y1="295" x2="930" y2="295" class="divider" />
  
  <!-- Current Position -->
  <rect x="690" y="305" width="240" height="25" class="container" />
  <text x="710" y="322" class="small-text">現在位置: 01:23</text>
  
  <!-- Settings Button -->
  <rect x="690" y="340" width="240" height="30" class="blue-button" />
  <text x="810" y="360" text-anchor="middle" class="button-text">詳細設定</text>
  
  <!-- Metrics Graph Area -->
  <rect x="50" y="390" width="900" height="140" class="graph" />
  <text x="70" y="405" class="label">メトリクスグラフ</text>
  <text x="900" y="405" text-anchor="end" class="small-text">クリックでシーク</text>
  
  <!-- Volume Plot Line -->
  <path d="M 80,450 Q 120,420 160,440 Q 200,460 240,420 Q 280,380 320,390 Q 360,400 400,440 Q 440,480 480,450 Q 520,420 560,430 Q 600,440 640,390 Q 680,340 720,420 Q 760,500 800,480 Q 840,460 880,440" class="plot-line-volume" />
  
  <!-- Multiple Comment Frequency Bars -->
  <!-- Term 1 (purple) -->
  <rect x="80" y="470" width="5" height="15" class="comments-bar1" />
  <rect x="120" y="470" width="5" height="6" class="comments-bar1" />
  <rect x="160" y="470" width="5" height="10" class="comments-bar1" />
  <rect x="240" y="470" width="5" height="25" class="comments-bar1" />
  <rect x="320" y="470" width="5" height="45" class="comments-bar1" />
  <rect x="360" y="470" width="5" height="35" class="comments-bar1" />
  <rect x="440" y="470" width="5" height="5" class="comments-bar1" />
  <rect x="520" y="470" width="5" height="10" class="comments-bar1" />
  <rect x="600" y="470" width="5" height="5" class="comments-bar1" />
  <rect x="720" y="470" width="5" height="8" class="comments-bar1" />
  <rect x="840" y="470" width="5" height="3" class="comments-bar1" />
  
  <!-- Term 2 (blue) -->
  <rect x="90" y="470" width="5" height="5" class="comments-bar2" />
  <rect x="130" y="470" width="5" height="12" class="comments-bar2" />
  <rect x="170" y="470" width="5" height="8" class="comments-bar2" />
  <rect x="250" y="470" width="5" height="10" class="comments-bar2" />
  <rect x="290" y="470" width="5" height="20" class="comments-bar2" />
  <rect x="390" y="470" width="5" height="22" class="comments-bar2" />
  <rect x="450" y="470" width="5" height="14" class="comments-bar2" />
  <rect x="570" y="470" width="5" height="8" class="comments-bar2" />
  <rect x="650" y="470" width="5" height="15" class="comments-bar2" />
  <rect x="730" y="470" width="5" height="5" class="comments-bar2" />
  <rect x="810" y="470" width="5" height="7" class="comments-bar2" />
  
  <!-- Term 3 (green) -->
  <rect x="100" y="470" width="5" height="8" class="comments-bar3" />
  <rect x="190" y="470" width="5" height="20" class="comments-bar3" />
  <rect x="220" y="470" width="5" height="12" class="comments-bar3" />
  <rect x="310" y="470" width="5" height="5" class="comments-bar3" />
  <rect x="370" y="470" width="5" height="18" class="comments-bar3" />
  <rect x="430" y="470" width="5" height="8" class="comments-bar3" />
  <rect x="510" y="470" width="5" height="15" class="comments-bar3" />
  <rect x="590" y="470" width="5" height="10" class="comments-bar3" />
  <rect x="670" y="470" width="5" height="6" class="comments-bar3" />
  <rect x="750" y="470" width="5" height="12" class="comments-bar3" />
  <rect x="870" y="470" width="5" height="4" class="comments-bar3" />
  
  <!-- Current position marker -->
  <line x1="400" y1="390" x2="400" y2="530" class="tick" />
  <circle cx="400" cy="440" r="5" class="current-marker" />
  
  <!-- Legend -->
  <rect x="700" y="410" width="15" height="3" class="legend-volume" />
  <text x="720" y="413" class="small-text">音量</text>
  
  <rect x="700" y="425" width="15" height="3" class="legend-comment1" />
  <text x="720" y="428" class="small-text">「検索語1」</text>
  
  <rect x="700" y="440" width="15" height="3" class="legend-comment2" />
  <text x="720" y="443" class="small-text">「検索語2」</text>
  
  <rect x="700" y="455" width="15" height="3" class="legend-comment3" />
  <text x="720" y="458" class="small-text">「検索語3」</text>
  
  <!-- Tabs -->
  <rect x="50" y="540" width="900" height="30" fill="white" stroke="#ddd" />
  <rect x="50" y="540" width="120" height="30" class="tab" />
  <text x="110" y="560" text-anchor="middle" class="label">チャプター</text>
  <rect x="170" y="540" width="120" height="30" class="tab-active" />
  <text x="230" y="560" text-anchor="middle" class="label">コメント</text>
  <rect x="290" y="540" width="120" height="30" class="tab" />
  <text x="350" y="560" text-anchor="middle" class="label">文字起こし</text>
  <rect x="410" y="540" width="140" height="30" class="tab" />
  <text x="480" y="560" text-anchor="middle" class="label">感情分析</text>
  
  <!-- Comment Tab Content -->
  <rect x="50" y="570" width="900" height="210" fill="white" stroke="#ddd" />
  
  <!-- Comment Filters -->
  <rect x="60" y="580" width="880" height="40" class="header" />
  <text x="85" y="605" class="label">表示:</text>
  <rect x="130" y="587" width="120" height="25" class="search" />
  <text x="190" y="602" text-anchor="middle" class="small-text">上位50件</text>
  
  <text x="280" y="605" class="label">並び替え:</text>
  <rect x="350" y="587" width="170" height="25" class="search" />
  <text x="435" y="602" text-anchor="middle" class="small-text">時間順 (昇順)</text>
  
  <text x="550" y="605" class="label">検索語一致:</text>
  <rect x="640" y="587" width="140" height="25" class="search" />
  <text x="710" y="602" text-anchor="middle" class="small-text">いずれか一致</text>
  
  <rect x="790" y="587" width="140" height="25" class="blue-button" />
  <text x="860" y="602" text-anchor="middle" class="button-text">絞り込み</text>
  
  <!-- Comment List -->
  <rect x="60" y="630" width="880" height="120" class="container" />
  
  <!-- Comment Header -->
  <rect x="60" y="630" width="880" height="25" class="header" />
  <text x="85" y="647" class="small-text">時間</text>
  <text x="150" y="647" class="small-text">ユーザー</text>
  <text x="300" y="647" class="small-text">コメント</text>
  <text x="700" y="647" class="small-text">一致検索語</text>
  <text x="890" y="647" class="small-text">いいね</text>
  
  <!-- Comment Items -->
  <rect x="60" y="655" width="880" height="30" class="comment" />
  <rect x="300" y="655" width="55" height="15" class="highlight3" />
  <text x="85" y="675" class="small-text">02:42</text>
  <text x="150" y="675" class="small-text">ユーザーA</text>
  <text x="300" y="675" class="small-text">この解説はとても分かりやすい！</text>
  <rect x="700" y="662" width="40" height="15" class="term-tag3" />
  <text x="720" y="673" text-anchor="middle" class="tag-text" style="font-size: 8px;">検索語3</text>
  <text x="890" y="675" class="small-text">24</text>
  
  <rect x="60" y="685" width="880" height="30" class="comment" />
  <rect x="300" y="685" width="55" height="15" class="highlight1" />
  <text x="85" y="705" class="small-text">03:15</text>
  <text x="150" y="705" class="small-text">ユーザーB</text>
  <text x="300" y="705" class="small-text">検索語1について詳しく知りたいです</text>
  <rect x="700" y="692" width="40" height="15" class="term-tag1" />
  <text x="720" y="703" text-anchor="middle" class="tag-text" style="font-size: 8px;">検索語1</text>
  <text x="890" y="705" class="small-text">8</text>
  
  <rect x="60" y="715" width="880" height="30" class="comment" />
  <rect x="300" y="715" width="55" height="15" class="highlight2" />
  <text x="85" y="735" class="small-text">04:37</text>
  <text x="150" y="735" class="small-text">ユーザーC</text>
  <text x="300" y="735" class="small-text">検索語2の件、前回よりも内容が濃くなってて良い！</text>
  <rect x="700" y="722" width="40" height="15" class="term-tag2" />
  <text x="720" y="733" text-anchor="middle" class="tag-text" style="font-size: 8px;">検索語2</text>
  <text x="890" y="735" class="small-text">42</text>
  
  <!-- Comment Navigation -->
  <rect x="350" y="760" width="300" height="20" class="header" />
  <text x="370" y="775" class="small-text">◀ 前のページ</text>
  <text x="500" y="775" text-anchor="middle" class="small-text">1/8ページ</text>
  <text x="620" y="775" class="small-text">次のページ ▶</text>
</svg>